<svg width="210" height="211" viewBox="0 0 210 211" fill="none" xmlns="http://www.w3.org/2000/svg">
<path id="Ellipse 104" d="M204.661 120.013C207.88 120.487 210.122 123.486 209.469 126.674C205.691 145.117 197.036 162.252 184.36 176.268C170.363 191.743 152.092 202.721 131.857 207.812C111.621 212.903 90.3307 211.879 70.6772 204.87C51.0237 197.861 33.89 185.181 21.4428 168.434C8.99553 151.688 1.79378 131.626 0.74825 110.786C-0.29728 89.9466 4.86036 69.2649 15.569 51.3564C26.2776 33.4479 42.0561 19.1171 60.9094 10.1762C77.9846 2.07846 96.8872 -1.26872 115.637 0.430494C118.878 0.724217 121.103 3.73571 120.629 6.95512C120.155 10.1745 117.16 12.3805 113.917 12.1096C97.4775 10.736 80.9277 13.725 65.9589 20.8238C49.2116 28.766 35.1954 41.4961 25.683 57.4042C16.1705 73.3123 11.589 91.6839 12.5177 110.196C13.4465 128.708 19.8438 146.529 30.9007 161.405C41.9576 176.281 57.1775 187.544 74.6357 193.77C92.0939 199.996 111.006 200.906 128.981 196.383C146.956 191.861 163.187 182.11 175.62 168.363C186.733 156.077 194.366 141.091 197.79 124.953C198.466 121.77 201.441 119.539 204.661 120.013Z" fill="#4F7FF8"/>
</svg>
