<svg width="28" height="28" viewBox="0 0 28 28" fill="none" xmlns="http://www.w3.org/2000/svg">
<g id="folder 1" clip-path="url(#clip0_44_509)">
<path id="Vector" d="M22.1667 3.49996H14.5507C14.3702 3.50115 14.1919 3.46125 14.0292 3.38329L10.3472 1.53529C9.86112 1.29326 9.32563 1.16708 8.78267 1.16663H5.83333C4.28681 1.16848 2.80415 1.78365 1.71059 2.87722C0.617029 3.97078 0.0018525 5.45343 0 6.99996L0 21C0.0018525 22.5465 0.617029 24.0291 1.71059 25.1227C2.80415 26.2163 4.28681 26.8314 5.83333 26.8333H22.1667C23.7132 26.8314 25.1959 26.2163 26.2894 25.1227C27.383 24.0291 27.9981 22.5465 28 21V9.33329C27.9981 7.78677 27.383 6.30411 26.2894 5.21055C25.1959 4.11699 23.7132 3.50181 22.1667 3.49996ZM5.83333 3.49996H8.78267C8.9631 3.49877 9.14144 3.53866 9.30417 3.61663L12.9862 5.45879C13.4717 5.70284 14.0072 5.83103 14.5507 5.83329H22.1667C22.8644 5.83443 23.5458 6.04407 24.1235 6.43531C24.7012 6.82654 25.1488 7.38151 25.4088 8.02896L2.33333 8.15963V6.99996C2.33333 6.0717 2.70208 5.18146 3.35846 4.52509C4.01484 3.86871 4.90508 3.49996 5.83333 3.49996ZM22.1667 24.5H5.83333C4.90508 24.5 4.01484 24.1312 3.35846 23.4748C2.70208 22.8185 2.33333 21.9282 2.33333 21V10.493L25.6667 10.3611V21C25.6667 21.9282 25.2979 22.8185 24.6415 23.4748C23.9852 24.1312 23.0949 24.5 22.1667 24.5Z" fill="white"/>
</g>
<defs>
<clipPath id="clip0_44_509">
<rect width="28" height="28" fill="white"/>
</clipPath>
</defs>
</svg>
