<svg width="79" height="91" viewBox="0 0 79 91" fill="none" xmlns="http://www.w3.org/2000/svg">
<g id="Frame" clip-path="url(#clip0_273_505)">
<path id="Vector" d="M40.2919 0.264577L53.4938 7.87433C53.969 8.13856 54.2331 8.66702 54.2331 9.19547V19.0247C54.2331 20.1873 55.5004 20.9272 56.5038 20.3459L65.0058 15.4312C65.4811 15.167 66.0619 15.167 66.5372 15.4312L78.1548 22.1426C78.6301 22.4069 78.8942 22.9353 78.8942 23.4638V52.106C78.8942 52.6345 78.5773 53.1629 78.1548 53.4272L53.3881 67.7483C52.9129 68.0125 52.6488 68.541 52.6488 69.0694V82.4922C52.6488 83.0207 52.332 83.5491 51.9095 83.8134L40.2919 90.5247C39.8166 90.789 39.2357 90.789 38.7605 90.5247L27.1428 83.8134C26.6676 83.5491 26.4035 83.0207 26.4035 82.4922V70.8134C26.4035 69.6508 25.1361 68.9109 24.1328 69.4922L14.0466 75.3052C13.5713 75.5695 12.9904 75.5695 12.5152 75.3052L0.897508 68.5938C0.422241 68.3296 0.158203 67.8012 0.158203 67.2727V23.5166C0.158203 22.9882 0.475048 22.4597 0.897508 22.1955L12.3039 15.5898C12.7792 15.3256 13.3601 15.3256 13.8353 15.5898L26.4563 22.6182V8.2971C26.4563 7.76864 26.7732 7.24019 27.1956 6.97596L38.8133 0.264577C39.2357 0.000349343 39.8166 0.000349343 40.2919 0.264577Z" fill="#3465DE"/>
<path id="Vector_2" d="M39.4999 90.9998V45.3941L26.1396 37.8372V53.0039L12.9906 45.3941V30.2275L0.211157 22.8291L0.0527344 68.0649L12.9906 75.8332V60.6137L26.1396 68.2234V83.3901L39.4999 90.9998Z" fill="#739BFF"/>
<path id="Vector_3" d="M26.1396 37.8371L65.5868 15.0078L78.6831 22.6704L39.4999 45.394" fill="#739BFF"/>
<path id="Vector_4" d="M26.1396 7.45117L39.2887 15.0081L39.4999 30.3333L26.1396 37.8373V7.45117Z" fill="#73B6FF"/>
</g>
<defs>
<clipPath id="clip0_273_505">
<rect width="79" height="91" fill="white"/>
</clipPath>
</defs>
</svg>
