<svg width="70" height="12" viewBox="0 0 70 12" fill="none" xmlns="http://www.w3.org/2000/svg">
<g id="Group 70">
<path id="Vector" d="M11.2269 6.14108L9.46372 7.4288L10.1333 9.50252C10.2416 9.82415 10.2429 10.1721 10.1372 10.4946C10.0316 10.8171 9.82451 11.0968 9.54693 11.292C9.27411 11.4934 8.94349 11.6014 8.60434 11.5997C8.2652 11.598 7.93568 11.4867 7.66488 11.2825L5.94082 10.0136L4.21627 11.2811C3.94394 11.4814 3.61511 11.5902 3.27704 11.5918C2.93898 11.5935 2.6091 11.4879 2.33483 11.2902C2.06056 11.0926 1.85603 10.813 1.75064 10.4918C1.64526 10.1706 1.64444 9.82424 1.74831 9.50252L2.41792 7.4288L0.654739 6.14108C0.382764 5.94223 0.180583 5.66252 0.0770769 5.3419C-0.0264292 5.02128 -0.0259666 4.67615 0.0783978 4.3558C0.182762 4.03546 0.38569 3.75629 0.658196 3.55817C0.930704 3.36005 1.25885 3.25311 1.59576 3.25263H3.76161L4.41884 1.20417C4.52219 0.88172 4.72528 0.600431 4.99882 0.40086C5.27236 0.201289 5.60222 0.09375 5.94082 0.09375C6.27943 0.09375 6.60928 0.201289 6.88282 0.40086C7.15636 0.600431 7.35946 0.88172 7.46281 1.20417L8.12004 3.25263H10.2839C10.6208 3.25311 10.949 3.36005 11.2215 3.55817C11.494 3.75629 11.6969 4.03546 11.8013 4.3558C11.9056 4.67615 11.9061 5.02128 11.8026 5.3419C11.6991 5.66252 11.4969 5.94223 11.2249 6.14108H11.2269Z" fill="black"/>
<path id="Vector_2" d="M25.7596 6.14108L23.9964 7.4288L24.6661 9.50252C24.7743 9.82415 24.7756 10.1721 24.67 10.4946C24.5643 10.8171 24.3572 11.0968 24.0796 11.292C23.8068 11.4934 23.4762 11.6014 23.1371 11.5997C22.7979 11.598 22.4684 11.4867 22.1976 11.2825L20.4735 10.0136L18.749 11.2811C18.4767 11.4814 18.1478 11.5902 17.8098 11.5918C17.4717 11.5935 17.1418 11.4879 16.8675 11.2902C16.5933 11.0926 16.3887 10.813 16.2834 10.4918C16.178 10.1706 16.1772 9.82424 16.281 9.50252L16.9506 7.4288L15.1875 6.14108C14.9155 5.94223 14.7133 5.66252 14.6098 5.3419C14.5063 5.02128 14.5067 4.67615 14.6111 4.3558C14.7155 4.03546 14.9184 3.75629 15.1909 3.55817C15.4634 3.36005 15.7916 3.25311 16.1285 3.25263H18.2943L18.9516 1.20417C19.0549 0.88172 19.258 0.600431 19.5315 0.40086C19.8051 0.201289 20.1349 0.09375 20.4735 0.09375C20.8121 0.09375 21.142 0.201289 21.4155 0.40086C21.6891 0.600431 21.8922 0.88172 21.9955 1.20417L22.6528 3.25263H24.8166C25.1535 3.25311 25.4817 3.36005 25.7542 3.55817C26.0267 3.75629 26.2296 4.03546 26.334 4.3558C26.4383 4.67615 26.4388 5.02128 26.3353 5.3419C26.2318 5.66252 26.0296 5.94223 25.7576 6.14108H25.7596Z" fill="black"/>
<path id="Vector_3" d="M40.2875 6.14108L38.5243 7.4288L39.1939 9.50252C39.3021 9.82415 39.3035 10.1721 39.1978 10.4946C39.0921 10.8171 38.8851 11.0968 38.6075 11.292C38.3347 11.4934 38.004 11.6014 37.6649 11.5997C37.3257 11.598 36.9962 11.4867 36.7254 11.2825L35.0014 10.0136L33.2768 11.2811C33.0045 11.4814 32.6757 11.5902 32.3376 11.5918C31.9995 11.5935 31.6696 11.4879 31.3954 11.2902C31.1211 11.0926 30.9166 10.813 30.8112 10.4918C30.7058 10.1706 30.705 9.82424 30.8089 9.50252L31.4785 7.4288L29.7153 6.14108C29.4433 5.94223 29.2411 5.66252 29.1376 5.3419C29.0341 5.02128 29.0346 4.67615 29.1389 4.3558C29.2433 4.03546 29.4462 3.75629 29.7187 3.55817C29.9913 3.36005 30.3194 3.25311 30.6563 3.25263H32.8222L33.4794 1.20417C33.5827 0.88172 33.7858 0.600431 34.0594 0.40086C34.3329 0.201289 34.6628 0.09375 35.0014 0.09375C35.34 0.09375 35.6698 0.201289 35.9434 0.40086C36.2169 0.600431 36.42 0.88172 36.5234 1.20417L37.1806 3.25263H39.3444C39.6814 3.25311 40.0095 3.36005 40.282 3.55817C40.5545 3.75629 40.7575 4.03546 40.8618 4.3558C40.9662 4.67615 40.9666 5.02128 40.8631 5.3419C40.7596 5.66252 40.5574 5.94223 40.2855 6.14108H40.2875Z" fill="black"/>
<path id="Vector_4" d="M55.2269 6.14108L53.4637 7.4288L54.1333 9.50252C54.2416 9.82415 54.2429 10.1721 54.1372 10.4946C54.0316 10.8171 53.8245 11.0968 53.5469 11.292C53.2741 11.4934 52.9435 11.6014 52.6043 11.5997C52.2652 11.598 51.9357 11.4867 51.6649 11.2825L49.9408 10.0136L48.2163 11.2811C47.9439 11.4814 47.6151 11.5902 47.277 11.5918C46.939 11.5935 46.6091 11.4879 46.3348 11.2902C46.0606 11.0926 45.856 10.813 45.7506 10.4918C45.6453 10.1706 45.6444 9.82424 45.7483 9.50252L46.4179 7.4288L44.6547 6.14108C44.3828 5.94223 44.1806 5.66252 44.0771 5.3419C43.9736 5.02128 43.974 4.67615 44.0784 4.3558C44.1828 4.03546 44.3857 3.75629 44.6582 3.55817C44.9307 3.36005 45.2588 3.25311 45.5958 3.25263H47.7616L48.4188 1.20417C48.5222 0.88172 48.7253 0.600431 48.9988 0.40086C49.2724 0.201289 49.6022 0.09375 49.9408 0.09375C50.2794 0.09375 50.6093 0.201289 50.8828 0.40086C51.1564 0.600431 51.3595 0.88172 51.4628 1.20417L52.12 3.25263H54.2839C54.6208 3.25311 54.949 3.36005 55.2215 3.55817C55.494 3.75629 55.6969 4.03546 55.8013 4.3558C55.9056 4.67615 55.9061 5.02128 55.8026 5.3419C55.6991 5.66252 55.4969 5.94223 55.2249 6.14108H55.2269Z" fill="black"/>
<path id="Vector_5" d="M69.2269 6.14108L67.4637 7.4288L68.1333 9.50252C68.2416 9.82415 68.2429 10.1721 68.1372 10.4946C68.0316 10.8171 67.8245 11.0968 67.5469 11.292C67.2741 11.4934 66.9435 11.6014 66.6043 11.5997C66.2652 11.598 65.9357 11.4867 65.6649 11.2825L63.9408 10.0136L62.2163 11.2811C61.9439 11.4814 61.6151 11.5902 61.277 11.5918C60.939 11.5935 60.6091 11.4879 60.3348 11.2902C60.0606 11.0926 59.856 10.813 59.7506 10.4918C59.6453 10.1706 59.6444 9.82424 59.7483 9.50252L60.4179 7.4288L58.6547 6.14108C58.3828 5.94223 58.1806 5.66252 58.0771 5.3419C57.9736 5.02128 57.974 4.67615 58.0784 4.3558C58.1828 4.03546 58.3857 3.75629 58.6582 3.55817C58.9307 3.36005 59.2588 3.25311 59.5958 3.25263H61.7616L62.4188 1.20417C62.5222 0.88172 62.7253 0.600431 62.9988 0.40086C63.2724 0.201289 63.6022 0.09375 63.9408 0.09375C64.2794 0.09375 64.6093 0.201289 64.8828 0.40086C65.1564 0.600431 65.3595 0.88172 65.4628 1.20417L66.12 3.25263H68.2839C68.6208 3.25311 68.949 3.36005 69.2215 3.55817C69.494 3.75629 69.6969 4.03546 69.8013 4.3558C69.9056 4.67615 69.9061 5.02128 69.8026 5.3419C69.6991 5.66252 69.4969 5.94223 69.2249 6.14108H69.2269Z" fill="black"/>
<path id="Vector_6" d="M69.9132 4.40236C69.8118 4.06922 69.6094 3.7786 69.3358 3.57348C69.0622 3.36837 68.7319 3.25965 68.3939 3.2634H66.2296L65.5723 1.14716C65.4689 0.814043 65.2658 0.523446 64.9922 0.317272C64.7186 0.111097 64.3887 0 64.05 0C63.7113 0 63.3814 0.111097 63.1078 0.317272C62.8342 0.523446 62.6311 0.814043 62.5277 1.14716L61.8704 3.2634H59.7061C59.3692 3.2639 59.041 3.37437 58.7684 3.57905C58.4958 3.78372 58.2929 4.07213 58.1885 4.40307C58.0841 4.73402 58.0836 5.09057 58.1872 5.4218C58.2907 5.75303 58.4929 6.04199 58.7649 6.24742L60.5265 7.57775L59.8567 9.72009C59.7485 10.0524 59.7471 10.4119 59.8528 10.745C59.9585 11.0781 60.1656 11.3671 60.4432 11.5687C60.7161 11.7769 61.0468 11.8884 61.386 11.8866C61.7252 11.8849 62.0548 11.77 62.3256 11.559L64.05 10.2481L65.7749 11.5575C66.0472 11.7644 66.3761 11.8768 66.7143 11.8785C67.0524 11.8802 67.3823 11.7711 67.6566 11.5669C67.931 11.3628 68.1355 11.074 68.2409 10.7421C68.3463 10.4103 68.3472 10.0524 68.2433 9.72009L67.5735 7.57775L69.337 6.24742C69.6122 6.04457 69.8168 5.75561 69.9205 5.42331C70.0243 5.09101 70.0217 4.73303 69.9132 4.40236ZM68.7525 5.42109L66.6997 6.97092C66.6154 7.03445 66.5527 7.12387 66.5205 7.22641C66.4883 7.32895 66.4882 7.43938 66.5204 7.54193L67.3006 10.0337C67.3401 10.1601 67.3397 10.2962 67.2996 10.4224C67.2595 10.5485 67.1817 10.6583 67.0774 10.7359C66.9731 10.8135 66.8476 10.855 66.719 10.8543C66.5905 10.8536 66.4654 10.8109 66.3619 10.7322L64.3433 9.19717C64.2582 9.13266 64.1555 9.09787 64.05 9.09787C63.9445 9.09787 63.8418 9.13266 63.7567 9.19717L61.7381 10.7322C61.6346 10.8119 61.5092 10.8556 61.3801 10.8568C61.251 10.858 61.1248 10.8167 61.02 10.7389C60.9151 10.6611 60.8369 10.5508 60.7968 10.424C60.7567 10.2972 60.7568 10.1605 60.7969 10.0337L61.5796 7.54193C61.6118 7.43938 61.6117 7.32895 61.5795 7.22641C61.5473 7.12387 61.4846 7.03445 61.4003 6.97092L59.3475 5.42109C59.2441 5.3429 59.1673 5.23297 59.128 5.107C59.0887 4.98102 59.089 4.84545 59.1288 4.71965C59.1686 4.59384 59.2458 4.48423 59.3495 4.40648C59.4532 4.32873 59.578 4.28682 59.7061 4.28673H62.2325C62.3374 4.28672 62.4395 4.25234 62.5243 4.18853C62.609 4.12471 62.672 4.03476 62.7041 3.93163L63.4719 1.45978C63.5113 1.33329 63.5886 1.22298 63.6925 1.14473C63.7965 1.06647 63.9218 1.02431 64.0505 1.02431C64.1791 1.02431 64.3045 1.06647 64.4084 1.14473C64.5124 1.22298 64.5897 1.33329 64.6291 1.45978L65.3969 3.93163C65.429 4.03476 65.4919 4.12471 65.5767 4.18853C65.6614 4.25234 65.7636 4.28672 65.8685 4.28673H68.3949C68.523 4.28682 68.6478 4.32873 68.7515 4.40648C68.8552 4.48423 68.9324 4.59384 68.9722 4.71965C69.012 4.84545 69.0123 4.98102 68.973 5.107C68.9337 5.23297 68.8569 5.3429 68.7535 5.42109H68.7525Z" fill="black"/>
</g>
</svg>
