<svg width="14" height="20" viewBox="0 0 14 20" fill="none" xmlns="http://www.w3.org/2000/svg">
<g id="Group 65">
<path id="Vector" d="M6.99965 10.0003C7.9038 10.0003 8.78764 9.73217 9.5394 9.22986C10.2912 8.72754 10.8771 8.01358 11.2231 7.17826C11.5691 6.34294 11.6596 5.42378 11.4832 4.53701C11.3069 3.65024 10.8715 2.83569 10.2321 2.19636C9.59282 1.55704 8.77826 1.12165 7.89149 0.945263C7.00472 0.768873 6.08556 0.859403 5.25024 1.2054C4.41492 1.5514 3.70096 2.13734 3.19865 2.8891C2.69633 3.64087 2.42822 4.52471 2.42822 5.42885C2.42943 6.6409 2.91145 7.80296 3.7685 8.66001C4.62555 9.51705 5.78761 9.99907 6.99965 10.0003ZM6.99965 2.38123C7.60241 2.38123 8.19164 2.55997 8.69282 2.89485C9.194 3.22973 9.58462 3.7057 9.81529 4.26258C10.046 4.81946 10.1063 5.43223 9.98871 6.02341C9.87112 6.6146 9.58086 7.15763 9.15464 7.58385C8.72843 8.01006 8.18539 8.30032 7.59421 8.41791C7.00303 8.53551 6.39026 8.47515 5.83338 8.24449C5.2765 8.01382 4.80053 7.6232 4.46565 7.12202C4.13077 6.62084 3.95203 6.03162 3.95203 5.42885C3.95203 4.62057 4.27312 3.8454 4.84466 3.27386C5.4162 2.70232 6.19137 2.38123 6.99965 2.38123Z" fill="black"/>
<path id="Vector_2" d="M6.99972 11.5244C5.18171 11.5264 3.43874 12.2495 2.15322 13.5351C0.867689 14.8206 0.144595 16.5635 0.142578 18.3816C0.142578 18.5836 0.22285 18.7774 0.365735 18.9203C0.50862 19.0632 0.702413 19.1435 0.904483 19.1435C1.10655 19.1435 1.30035 19.0632 1.44323 18.9203C1.58612 18.7774 1.66639 18.5836 1.66639 18.3816C1.66639 16.9671 2.22829 15.6105 3.22849 14.6103C4.22868 13.6101 5.58523 13.0482 6.99972 13.0482C8.41421 13.0482 9.77077 13.6101 10.771 14.6103C11.7712 15.6105 12.3331 16.9671 12.3331 18.3816C12.3331 18.5836 12.4133 18.7774 12.5562 18.9203C12.6991 19.0632 12.8929 19.1435 13.095 19.1435C13.297 19.1435 13.4908 19.0632 13.6337 18.9203C13.7766 18.7774 13.8569 18.5836 13.8569 18.3816C13.8549 16.5635 13.1318 14.8206 11.8462 13.5351C10.5607 12.2495 8.81773 11.5264 6.99972 11.5244Z" fill="black"/>
</g>
</svg>
