<svg width="28" height="28" viewBox="0 0 28 28" fill="none" xmlns="http://www.w3.org/2000/svg">
<g id="Group 59">
<path id="Vector" d="M21.8319 14H16.3334C15.7146 14 15.1211 13.7542 14.6835 13.3166C14.2459 12.879 14.0001 12.2855 14.0001 11.6667V6.15301C14.0017 5.61632 13.8798 5.08646 13.6439 4.60439C13.4081 4.12231 13.0645 3.70094 12.6398 3.37284C12.2373 3.05412 11.767 2.83218 11.2651 2.72416C10.7632 2.61614 10.2432 2.62492 9.74526 2.74984C6.91686 3.45196 4.41282 5.09842 2.64723 7.41693C0.881646 9.73545 -0.0397153 12.5871 0.0355177 15.5004C0.110751 18.4137 1.17807 21.214 3.06097 23.4383C4.94387 25.6626 7.52956 27.1777 10.3904 27.7328C13.607 28.3485 16.9374 27.7112 19.6993 25.9513C22.4613 24.1914 24.4459 21.4421 25.2468 18.2665C25.3721 17.7679 25.3813 17.2472 25.2735 16.7445C25.1656 16.2418 24.9438 15.7707 24.6249 15.3673C24.293 14.9432 23.8692 14.5998 23.3854 14.363C22.9017 14.1262 22.3705 14.0021 21.8319 14ZM22.9846 17.696C22.5379 19.4949 21.6214 21.1428 20.3289 22.4712C19.0363 23.7996 17.4141 24.7609 15.6282 25.2567C13.8423 25.7525 11.9567 25.765 10.1643 25.293C8.37197 24.8209 6.73715 23.8813 5.42709 22.5701C4.11703 21.259 3.17874 19.6234 2.70819 17.8306C2.23764 16.0379 2.25172 14.1523 2.74899 12.3668C3.24627 10.5813 4.20888 8.95988 5.53838 7.66844C6.86788 6.37701 8.51655 5.46189 10.3158 5.01668C10.4697 4.97822 10.6305 4.97634 10.7853 5.01119C10.94 5.04603 11.0845 5.11664 11.2071 5.21734C11.3519 5.32772 11.4693 5.46996 11.5502 5.63303C11.6311 5.7961 11.6734 5.97563 11.6738 6.15768V11.6667C11.6738 12.9044 12.1654 14.0913 13.0406 14.9665C13.9158 15.8417 15.1028 16.3333 16.3404 16.3333H21.8378C22.0214 16.3341 22.2025 16.3765 22.3674 16.4573C22.5323 16.5381 22.6767 16.6553 22.7898 16.8C22.8889 16.9243 22.958 17.0699 22.9916 17.2253C23.0252 17.3807 23.0236 17.5418 22.9846 17.696Z" fill="white"/>
<path id="Vector_2" d="M27.5928 8.68696C27.0557 6.71234 26.0122 4.91221 24.5658 3.4647C23.1193 2.01719 21.3199 0.972482 19.3456 0.433959C19.1387 0.37832 18.9253 0.350079 18.711 0.349959C18.4027 0.34703 18.0969 0.405221 17.8112 0.52117C17.5256 0.637119 17.2657 0.808527 17.0467 1.02549C16.8277 1.24245 16.6538 1.50067 16.5352 1.78521C16.4165 2.06976 16.3555 2.375 16.3555 2.68329V8.16663C16.3555 9.09488 16.7242 9.98512 17.3806 10.6415C18.037 11.2979 18.9272 11.6666 19.8555 11.6666H25.361C25.7211 11.6632 26.0755 11.5767 26.3968 11.414C26.7181 11.2513 26.9976 11.0167 27.2134 10.7285C27.4293 10.4403 27.5759 10.1061 27.6417 9.75205C27.7075 9.39798 27.6907 9.03351 27.5928 8.68696ZM24.6785 9.33329H19.8508C19.5414 9.33329 19.2446 9.21038 19.0258 8.99158C18.8071 8.77279 18.6841 8.47605 18.6841 8.16663L18.6748 2.69146C18.6833 2.68528 18.6935 2.68164 18.704 2.68096H18.7343C20.3234 3.11389 21.7712 3.95602 22.9332 5.12331C24.0951 6.2906 24.9306 7.74221 25.3563 9.33329H24.6785Z" fill="white"/>
</g>
</svg>
