<svg width="32" height="32" viewBox="0 0 32 32" fill="none" xmlns="http://www.w3.org/2000/svg">
<g id="Log Out">
<path id="44 Log out, Basic, Essential" d="M29.71 16.71L25.71 20.71L24.29 19.29L26.59 17H21C20.2044 17 19.4413 16.6839 18.8787 16.1213C18.3161 15.5587 18 14.7956 18 14V5C18 4.73478 17.8946 4.48043 17.7071 4.29289C17.5196 4.10536 17.2652 4 17 4H5C4.73478 4 4.48043 4.10536 4.29289 4.29289C4.10536 4.48043 4 4.73478 4 5V27C4 27.2652 4.10536 27.5196 4.29289 27.7071C4.48043 27.8946 4.73478 28 5 28H17C17.2652 28 17.5196 27.8946 17.7071 27.7071C17.8946 27.5196 18 27.2652 18 27V20H20V27C20 27.7956 19.6839 28.5587 19.1213 29.1213C18.5587 29.6839 17.7956 30 17 30H5C4.20435 30 3.44129 29.6839 2.87868 29.1213C2.31607 28.5587 2 27.7956 2 27V5C2 4.20435 2.31607 3.44129 2.87868 2.87868C3.44129 2.31607 4.20435 2 5 2H17C17.7956 2 18.5587 2.31607 19.1213 2.87868C19.6839 3.44129 20 4.20435 20 5V14C20 14.2652 20.1054 14.5196 20.2929 14.7071C20.4804 14.8946 20.7348 15 21 15H26.6L24.34 12.72L25.76 11.31L29.71 15.31C29.8932 15.4969 29.9959 15.7482 29.9959 16.01C29.9959 16.2718 29.8932 16.5231 29.71 16.71Z" fill="black"/>
</g>
</svg>
