<svg width="20" height="20" viewBox="0 0 20 20" fill="none" xmlns="http://www.w3.org/2000/svg">
<g id="site-alt 1" clip-path="url(#clip0_310_553)">
<path id="Vector" d="M19.5117 13.4083C19.5117 13.4083 12.2333 10.1 12.2075 10.0917C11.6008 9.885 10.9425 10.0375 10.4892 10.4908C10.0358 10.9442 9.88333 11.6025 10.1208 12.2833L13.4075 19.5125C13.54 19.805 13.8292 19.995 14.1508 20.0008H14.1667C14.4817 20.0008 14.7708 19.8225 14.9125 19.54L16.455 16.455L19.54 14.9125C19.8275 14.7683 20.0067 14.4733 20.0008 14.1517C19.995 13.8308 19.805 13.5417 19.5125 13.4083H19.5117ZM15.4608 15.0883C15.3 15.1692 15.1683 15.3 15.0883 15.4608L14.2017 17.2342L11.665 11.6708L17.2325 14.2025L15.4617 15.0875L15.4608 15.0883ZM10.76 18.3C10.6167 18.3125 10.4725 18.3217 10.3267 18.3275C9.77 17.7767 8.31833 16.2292 7.30667 14.1675H7.91667C8.37667 14.1675 8.75 13.795 8.75 13.3342C8.75 12.8733 8.37667 12.5008 7.91667 12.5008H6.64167C6.39917 11.7075 6.25 10.8675 6.25 10.0008C6.25 9.13417 6.4 8.295 6.64333 7.50083H13.3575C13.4558 7.82333 13.5392 8.15333 13.6033 8.49C13.69 8.9425 14.1275 9.24083 14.5775 9.1525C15.0292 9.06667 15.3258 8.63 15.24 8.17833C15.1967 7.94917 15.145 7.72333 15.0875 7.50083H17.915C17.9258 7.50083 17.9375 7.50083 17.9483 7.50083C18.1975 8.29083 18.3317 9.13083 18.3317 10.0017C18.3317 10.2575 18.32 10.51 18.2975 10.76C18.2567 11.2183 18.5942 11.6233 19.0525 11.665C19.5125 11.71 19.9167 11.3683 19.9575 10.91C19.9842 10.6108 19.9983 10.3075 19.9983 10.0017C20 4.48583 15.5142 0 10 0C4.48583 0 0 4.48583 0 10C0 15.5142 4.48583 20 9.99917 20C10.305 20 10.6075 19.9858 10.9058 19.9592C11.3642 19.9183 11.7033 19.5142 11.6625 19.055C11.6217 18.5975 11.2183 18.2592 10.7592 18.2992L10.76 18.3ZM4.91 12.5008H2.08333C2.0725 12.5008 2.06167 12.5008 2.05 12.5008C1.80083 11.7108 1.66667 10.8708 1.66667 10C1.66667 9.12917 1.80083 8.28917 2.05 7.49917C2.06083 7.49917 2.07167 7.49917 2.08333 7.49917H4.91C4.70583 8.295 4.58333 9.13167 4.58333 9.99917C4.58333 10.8667 4.705 11.7033 4.91 12.4992V12.5008ZM7.31083 5.83417C8.16167 4.10333 9.32333 2.73083 10.0017 2.01083C10.6808 2.73 11.8425 4.1 12.6933 5.83417H7.31083ZM17.215 5.83417H14.525C13.8658 4.2625 12.9517 2.9275 12.165 1.95333C14.3142 2.5325 16.1225 3.95083 17.215 5.83417ZM7.83333 1.95333C7.04667 2.9275 6.13167 4.2625 5.47333 5.83333H2.785C3.87667 3.95 5.68417 2.53167 7.83333 1.95333ZM2.785 14.1667H5.47333C6.13167 15.7383 7.04667 17.0725 7.83333 18.0467C5.685 17.4675 3.8775 16.0492 2.785 14.1667Z" fill="black"/>
</g>
<defs>
<clipPath id="clip0_310_553">
<rect width="20" height="20" fill="white"/>
</clipPath>
</defs>
</svg>
