<svg width="27" height="22" viewBox="0 0 27 22" fill="none" xmlns="http://www.w3.org/2000/svg">
<path id="Vector" d="M25.875 19.801V17.602C25.8709 14.5864 24.7154 11.6809 22.6345 9.45426C20.5537 7.22761 17.6975 5.84017 14.625 5.56354V4.1034C15.0539 3.86136 15.3892 3.48776 15.5787 3.04053C15.7683 2.5933 15.8015 2.09744 15.6733 1.62986C15.5451 1.16228 15.2627 0.749104 14.8697 0.454417C14.4768 0.15973 13.9953 0 13.5 0C13.0047 0 12.5232 0.15973 12.1303 0.454417C11.7373 0.749104 11.4549 1.16228 11.3267 1.62986C11.1985 2.09744 11.2317 2.5933 11.4213 3.04053C11.6108 3.48776 11.9461 3.86136 12.375 4.1034V5.56354C9.3025 5.84017 6.44627 7.22761 4.36546 9.45426C2.28464 11.6809 1.12909 14.5864 1.125 17.602V19.801C0.826631 19.801 0.540483 19.9168 0.329505 20.123C0.118526 20.3292 0 20.6089 0 20.9005C0 21.1921 0.118526 21.4718 0.329505 21.678C0.540483 21.8842 0.826631 22 1.125 22H25.875C26.1734 22 26.4595 21.8842 26.6705 21.678C26.8815 21.4718 27 21.1921 27 20.9005C27 20.6089 26.8815 20.3292 26.6705 20.123C26.4595 19.9168 26.1734 19.801 25.875 19.801ZM3.375 17.602C3.90712 4.48053 23.0974 4.49042 23.625 17.602V19.801H3.375V17.602Z" fill="white"/>
</svg>
