<svg width="26" height="26" viewBox="0 0 26 26" fill="none" xmlns="http://www.w3.org/2000/svg">
<path id="Vector" d="M25.0477 9.80747L16.8307 1.58438C15.8137 0.569758 14.4361 0 13 0C11.5639 0 10.1863 0.569758 9.16934 1.58438L0.952262 9.80747C0.64939 10.1086 0.409263 10.4669 0.245802 10.8615C0.0823411 11.2562 -0.00120293 11.6794 1.30861e-05 12.1066V22.7481C1.30861e-05 23.6105 0.342422 24.4377 0.951915 25.0475C1.56141 25.6574 2.38806 26 3.25001 26H22.75C23.6119 26 24.4386 25.6574 25.0481 25.0475C25.6576 24.4377 26 23.6105 26 22.7481V12.1066C26.0012 11.6794 25.9177 11.2562 25.7542 10.8615C25.5907 10.4669 25.3506 10.1086 25.0477 9.80747ZM16.25 23.832H9.75V19.5676C9.75 18.7052 10.0924 17.878 10.7019 17.2682C11.3114 16.6583 12.138 16.3157 13 16.3157C13.862 16.3157 14.6886 16.6583 15.2981 17.2682C15.9076 17.878 16.25 18.7052 16.25 19.5676V23.832ZM23.8333 22.7481C23.8333 23.0355 23.7192 23.3113 23.516 23.5145C23.3129 23.7178 23.0373 23.832 22.75 23.832H18.4167V19.5676C18.4167 18.1302 17.846 16.7516 16.8302 15.7352C15.8143 14.7188 14.4366 14.1477 13 14.1477C11.5634 14.1477 10.1857 14.7188 9.16984 15.7352C8.15402 16.7516 7.58334 18.1302 7.58334 19.5676V23.832H3.25001C2.96269 23.832 2.68714 23.7178 2.48398 23.5145C2.28081 23.3113 2.16668 23.0355 2.16668 22.7481V12.1066C2.16768 11.8193 2.28172 11.544 2.48409 11.3402L10.7012 3.12038C11.3118 2.51219 12.1384 2.17075 13 2.17075C13.8616 2.17075 14.6882 2.51219 15.2988 3.12038L23.5159 11.3435C23.7175 11.5464 23.8315 11.8204 23.8333 12.1066V22.7481Z" fill="white"/>
</svg>
