<svg width="31" height="31" viewBox="0 0 31 31" fill="none" xmlns="http://www.w3.org/2000/svg">
<path id="Vector" d="M30.6337 28.8662L23.1725 21.405C25.2058 18.9182 26.2054 15.7451 25.9648 12.5419C25.7241 9.33876 24.2615 6.35063 21.8795 4.19562C19.4974 2.04061 16.3782 0.883587 13.167 0.963877C9.95584 1.04417 6.89835 2.35563 4.62699 4.62699C2.35563 6.89835 1.04417 9.95584 0.963877 13.167C0.883587 16.3782 2.04061 19.4974 4.19562 21.8795C6.35063 24.2615 9.33876 25.7241 12.5419 25.9648C15.7451 26.2054 18.9182 25.2058 21.405 23.1725L28.8662 30.6337C29.102 30.8614 29.4177 30.9874 29.7455 30.9846C30.0732 30.9817 30.3867 30.8503 30.6185 30.6185C30.8503 30.3867 30.9817 30.0732 30.9846 29.7455C30.9874 29.4177 30.8614 29.102 30.6337 28.8662ZM13.5 23.5C11.5222 23.5 9.58876 22.9135 7.94427 21.8147C6.29978 20.7159 5.01805 19.1541 4.26118 17.3268C3.5043 15.4995 3.30627 13.4889 3.69212 11.5491C4.07797 9.60926 5.03038 7.82743 6.4289 6.4289C7.82743 5.03038 9.60926 4.07797 11.5491 3.69212C13.4889 3.30627 15.4995 3.5043 17.3268 4.26118C19.1541 5.01805 20.7159 6.29978 21.8147 7.94427C22.9135 9.58876 23.5 11.5222 23.5 13.5C23.497 16.1512 22.4425 18.693 20.5678 20.5678C18.693 22.4425 16.1512 23.497 13.5 23.5Z" fill="#868686"/>
</svg>
