<svg width="21" height="28" viewBox="0 0 21 28" fill="none" xmlns="http://www.w3.org/2000/svg">
<path id="Vector" d="M17.5 0H3.5C1.57033 0 0 1.57033 0 3.5V28H9.33333V21H11.6667V28H21V3.5C21 1.57033 19.4297 0 17.5 0ZM18.6667 25.6667H14V21H16.3333V18.6667H4.66667V21H7V25.6667H2.33333V3.5C2.33333 2.85717 2.85717 2.33333 3.5 2.33333H17.5C18.1428 2.33333 18.6667 2.85717 18.6667 3.5V25.6667ZM4.66667 14H7V16.3333H4.66667V14ZM14 14H16.3333V16.3333H14V14ZM4.66667 4.66667H7V7H4.66667V4.66667ZM14 4.66667H16.3333V7H14V4.66667ZM4.66667 9.33333H7V11.6667H4.66667V9.33333ZM14 9.33333H16.3333V11.6667H14V9.33333ZM9.33333 14H11.6667V16.3333H9.33333V14ZM9.33333 4.66667H11.6667V7H9.33333V4.66667ZM9.33333 9.33333H11.6667V11.6667H9.33333V9.33333Z" fill="white"/>
</svg>
