<svg width="28" height="28" viewBox="0 0 28 28" fill="none" xmlns="http://www.w3.org/2000/svg">
<path id="Vector" d="M14 0C6.28017 0 0 6.28017 0 14C0 21.7198 6.28017 28 14 28C21.7198 28 28 21.7198 28 14C28 6.28017 21.7198 0 14 0ZM14 25.6667C7.567 25.6667 2.33333 20.433 2.33333 14C2.33333 7.567 7.567 2.33333 14 2.33333C20.433 2.33333 25.6667 7.567 25.6667 14C25.6667 20.433 20.433 25.6667 14 25.6667ZM18.6667 16.3333C18.6667 18.263 17.0963 19.8333 15.1667 19.8333V21C15.1667 21.6452 14.6452 22.1667 14 22.1667C13.3548 22.1667 12.8333 21.6452 12.8333 21V19.8333H12.5207C11.2758 19.8333 10.1138 19.1637 9.48967 18.0845C9.1665 17.5257 9.35783 16.8128 9.91433 16.4908C10.4732 16.1653 11.1872 16.359 11.508 16.9155C11.7168 17.2772 12.1042 17.5 12.5195 17.5H15.1655C15.8095 17.5 16.3322 16.9773 16.3322 16.3333C16.3322 15.8923 16.016 15.519 15.5808 15.4467L12.033 14.8552C10.4673 14.595 9.33217 13.2533 9.33217 11.6667C9.33217 9.737 10.9025 8.16667 12.8322 8.16667V7C12.8322 6.356 13.3537 5.83333 13.9988 5.83333C14.644 5.83333 15.1655 6.356 15.1655 7V8.16667H15.4782C16.723 8.16667 17.885 8.8375 18.5092 9.91667C18.8323 10.4743 18.641 11.1872 18.0845 11.5103C17.5245 11.8335 16.8117 11.6422 16.4908 11.0845C16.282 10.724 15.8947 10.5012 15.4793 10.5012H12.8333C12.1893 10.5012 11.6667 11.025 11.6667 11.6678C11.6667 12.1088 11.9828 12.4822 12.418 12.5545L15.9658 13.146C17.5315 13.4062 18.6667 14.7478 18.6667 16.3345V16.3333Z" fill="white"/>
</svg>
