<svg width="28" height="33" viewBox="0 0 28 33" fill="none" xmlns="http://www.w3.org/2000/svg">
<path id="Vector" d="M10.0417 21.6667V18.4375C10.0417 16.6576 11.4896 15.2083 13.2708 15.2083H19.7292C21.5104 15.2083 22.9583 16.6576 22.9583 18.4375V21.6667H21.6667V18.4375C21.6667 17.3693 20.7974 16.5 19.7292 16.5H13.2708C12.2026 16.5 11.3333 17.3693 11.3333 18.4375V21.6667H10.0417ZM12.625 10.0417C12.625 7.90525 14.3636 6.16667 16.5 6.16667C18.6364 6.16667 20.375 7.90525 20.375 10.0417C20.375 12.1781 18.6364 13.9167 16.5 13.9167C14.3636 13.9167 12.625 12.1781 12.625 10.0417ZM13.9167 10.0417C13.9167 11.4664 15.0753 12.625 16.5 12.625C17.9247 12.625 19.0833 11.4664 19.0833 10.0417C19.0833 8.61696 17.9247 7.45833 16.5 7.45833C15.0753 7.45833 13.9167 8.61696 13.9167 10.0417ZM26.8333 2.9375V32H4.22917C2.44796 32 1 30.5507 1 28.7708V4.22917C1 2.44925 2.44796 1 4.22917 1H24.8958C25.964 1 26.8333 1.86929 26.8333 2.9375ZM24.8958 2.29167H7.45833V25.5417H25.5417V2.9375C25.5417 2.581 25.251 2.29167 24.8958 2.29167ZM2.29167 4.22917V26.1888C2.83158 25.7819 3.50325 25.5417 4.22917 25.5417H6.16667V2.29167H4.22917C3.16096 2.29167 2.29167 3.16096 2.29167 4.22917ZM25.5417 30.7083V26.8333H4.22917C3.16096 26.8333 2.29167 27.7026 2.29167 28.7708C2.29167 29.839 3.16096 30.7083 4.22917 30.7083H25.5417Z" fill="white" stroke="white" stroke-width="0.5"/>
</svg>
